<svg width="460" height="519" viewBox="0 0 460 519" fill="none" xmlns="http://www.w3.org/2000/svg">
<path d="M74 241.5L209 367.922L209 509.343C209 509.343 79 413 67.5787 367.922C56.1573 322.844 74 241.5 74 241.5Z" fill="#3EE86D"/>
<mask id="mask0_44_11" style="mask-type:alpha" maskUnits="userSpaceOnUse" x="63" y="241" width="147" height="269">
<path d="M74 241.5L209 367.922L209 509.343C209 509.343 79 413 67.5787 367.922C56.1573 322.844 74 241.5 74 241.5Z" fill="#3EE86D"/>
</mask>
<g mask="url(#mask0_44_11)">
<path d="M38 293L224 454.5" stroke="#D7F9E1" stroke-width="10"/>
</g>
<path d="M381.133 228.001L239.711 369.422L239.712 510.844C239.712 510.844 360 426 381.133 369.422C402.266 312.844 381.133 228.001 381.133 228.001Z" fill="#3EE86D"/>
<mask id="mask1_44_11" style="mask-type:alpha" maskUnits="userSpaceOnUse" x="239" y="228" width="152" height="283">
<path d="M381.133 228.001L239.711 369.422L239.712 510.844C239.712 510.844 360 426 381.133 369.422C402.266 312.844 381.133 228.001 381.133 228.001Z" fill="#3EE86D"/>
</mask>
<g mask="url(#mask1_44_11)">
<path d="M410 293L224 454.5" stroke="#D7F9E1" stroke-width="10"/>
</g>
<path d="M84.5 216C106.92 169 164.091 176.468 179 143.5C214.274 65.5 189.998 3.50004 189.998 3.50004C189.998 3.50004 227.998 33 297.998 107.5C367.998 182 365.421 204 365.421 204L224 345.422L84.5 216Z" fill="url(#paint0_linear_44_11)"/>
<mask id="mask2_44_11" style="mask-type:alpha" maskUnits="userSpaceOnUse" x="84" y="3" width="282" height="343">
<path d="M194.875 10.727C195.052 10.8761 195.233 11.0284 195.417 11.184C200.048 15.092 206.96 21.0858 216.061 29.4075C234.263 46.051 261.218 72.0064 296.176 109.212C331.098 146.378 347.8 170.33 355.767 184.888C359.747 192.161 361.524 197.05 362.313 200.037C362.678 201.42 362.83 202.389 362.892 202.994L223.935 341.951L87.5659 215.434C98.4771 194.003 117.109 184.693 135.552 176.786C137.136 176.106 138.724 175.436 140.307 174.767C148.078 171.483 155.74 168.246 162.381 164.273C170.443 159.449 177.268 153.398 181.278 144.53C199.112 105.093 201.903 69.6712 200.222 44.086C199.381 31.2965 197.423 20.9638 195.668 13.8107C195.398 12.7063 195.131 11.6775 194.875 10.727Z" fill="url(#paint1_linear_44_11)" stroke="#D7F9E1" stroke-width="5"/>
</mask>
<g mask="url(#mask2_44_11)">
<path d="M186 -8C186 -8 231.5 82 238.5 184C245.5 286 201 401 201 401" stroke="#D7F9E1" stroke-width="10"/>
<path d="M161.5 129.5L240 198.5L314.5 108M97 180L231 288.5L362.5 157.5" stroke="#D7F9E1" stroke-width="10"/>
</g>
<defs>
<linearGradient id="paint0_linear_44_11" x1="214" y1="-16.5" x2="214" y2="274" gradientUnits="userSpaceOnUse">
<stop stop-color="#23823D"/>
<stop offset="1" stop-color="#3EE86D"/>
</linearGradient>
<linearGradient id="paint1_linear_44_11" x1="214" y1="-16.5" x2="214" y2="274" gradientUnits="userSpaceOnUse">
<stop stop-color="#23823D"/>
<stop offset="1" stop-color="#3EE86D"/>
</linearGradient>
</defs>
</svg>
