<svg width="460" height="514" viewBox="0 0 460 514" fill="none" xmlns="http://www.w3.org/2000/svg">
<path d="M74 236.5L209 362.921L209 504.343C209 504.343 79 408 67.5787 362.922C56.1573 317.844 74 236.5 74 236.5Z" fill="#24C650"/>
<path d="M381.133 223L239.711 364.422L239.712 505.844C239.712 505.844 360 421 381.133 364.422C402.266 307.844 381.133 223 381.133 223Z" fill="#24C650"/>
<path d="M84.5002 211C106.92 164 152 153 167.5 140C233.091 84.9901 204.5 4.5 204.5 4.5C204.5 4.5 227.999 28.0002 297.999 102.5C367.999 177 365.422 199.001 365.422 199.001L224 340.422L84.5002 211Z" fill="#24C650"/>
<mask id="mask0_44_11" style="mask-type:alpha" maskUnits="userSpaceOnUse" x="56" y="0" width="333" height="354">
<path d="M56.845 192.155L207.5 0.5L388.594 183.594L218.439 353.749L56.845 192.155Z" fill="url(#paint0_linear_44_11)"/>
</mask>
<g mask="url(#mask0_44_11)">
<mask id="mask1_44_11" style="mask-type:alpha" maskUnits="userSpaceOnUse" x="84" y="4" width="282" height="337">
<path d="M84.5002 211C106.92 164.001 152 153 167.5 140C233.091 84.9904 204.5 4.50025 204.5 4.50025C204.5 4.50025 227.999 28.0005 297.999 102.5C367.999 177 365.422 199.001 365.422 199.001L224 340.422L84.5002 211Z" fill="url(#paint1_linear_44_11)"/>
</mask>
<g mask="url(#mask1_44_11)">
<path d="M205.5 -6.49976C205.5 -6.49976 263.5 196 234 282C204.5 368 222.5 424 253.5 437" stroke="#F9FD7F" stroke-width="10"/>
<path d="M161.5 124.5L240 193.5L314.5 103M97 175L231 283.5L362.5 152.5" stroke="#F9FD7F" stroke-width="10"/>
</g>
</g>
<defs>
<linearGradient id="paint0_linear_44_11" x1="231.661" y1="70.3394" x2="276.386" y2="322.594" gradientUnits="userSpaceOnUse">
<stop stop-color="#CFFFDD"/>
<stop offset="0.329059" stop-color="#A5BFAD" stop-opacity="0.431078"/>
<stop offset="1" stop-color="#7F9385" stop-opacity="0"/>
</linearGradient>
<linearGradient id="paint1_linear_44_11" x1="214" y1="-21.4995" x2="214" y2="269" gradientUnits="userSpaceOnUse">
<stop stop-color="#23823D"/>
<stop offset="1" stop-color="#23823D"/>
</linearGradient>
</defs>
</svg>
